<svg width="20" height="20" viewBox="0 0 20 20" fill="none" xmlns="http://www.w3.org/2000/svg">
<path d="M18.6583 14.5144L15.7694 17.612C15.7069 17.6793 15.6313 17.733 15.5471 17.7697C15.463 17.8065 15.3721 17.8255 15.2803 17.8256H1.58566C1.52034 17.8255 1.45645 17.8064 1.40181 17.7706C1.34718 17.7349 1.30416 17.6839 1.27804 17.624C1.25191 17.5642 1.24381 17.498 1.25472 17.4336C1.26563 17.3692 1.29509 17.3094 1.33948 17.2615L4.22514 14.1639C4.28762 14.0966 4.3633 14.0429 4.44745 14.0062C4.53159 13.9694 4.62241 13.9504 4.71423 13.9503H18.4089C18.4748 13.9489 18.5396 13.9671 18.5953 14.0025C18.6509 14.0379 18.6948 14.089 18.7214 14.1493C18.7481 14.2096 18.7563 14.2764 18.7451 14.3414C18.7339 14.4063 18.7037 14.4665 18.6583 14.5144ZM15.7694 8.27517C15.7067 8.20819 15.631 8.15471 15.5469 8.11799C15.4628 8.08127 15.3721 8.06208 15.2803 8.0616H1.58566C1.52034 8.06163 1.45645 8.08071 1.40181 8.11651C1.34718 8.1523 1.30416 8.20324 1.27804 8.26311C1.25191 8.32297 1.24381 8.38915 1.25472 8.45355C1.26563 8.51795 1.29509 8.57777 1.33948 8.62568L4.22514 11.7249C4.28786 11.7919 4.36359 11.8454 4.44768 11.8821C4.53177 11.9188 4.62247 11.938 4.71423 11.9385H18.4089C18.4741 11.9381 18.5377 11.9188 18.5921 11.8829C18.6465 11.847 18.6893 11.796 18.7152 11.7362C18.7411 11.6764 18.7491 11.6104 18.7381 11.5461C18.7272 11.4819 18.6977 11.4222 18.6534 11.3744L15.7694 8.27517ZM1.58566 6.04979H15.2803C15.3721 6.04971 15.463 6.0307 15.5471 5.99396C15.6313 5.95721 15.7069 5.90351 15.7694 5.83621L18.6583 2.73861C18.6922 2.70281 18.7177 2.65998 18.7331 2.61316C18.7485 2.56634 18.7533 2.51671 18.7473 2.4678C18.7413 2.41889 18.7245 2.37192 18.6982 2.33024C18.6719 2.28856 18.6368 2.2532 18.5952 2.2267C18.5396 2.19131 18.4748 2.17316 18.4089 2.17453H4.71423C4.62241 2.17462 4.53159 2.19364 4.44745 2.23038C4.3633 2.26713 4.28762 2.32081 4.22514 2.3881L1.33948 5.4857C1.29509 5.53361 1.26563 5.59343 1.25472 5.65783C1.24381 5.72223 1.25191 5.78841 1.27804 5.84827C1.30416 5.90814 1.34718 5.95908 1.40181 5.99488C1.45645 6.03067 1.52034 6.04975 1.58566 6.04979Z" fill="url(#paint0_linear_1154_6288)"/>
<defs>
<linearGradient id="paint0_linear_1154_6288" x1="2.72688" y1="18.1989" x2="17.0867" y2="2.00986" gradientUnits="userSpaceOnUse">
<stop offset="0.08" stop-color="#9945FF"/>
<stop offset="0.3" stop-color="#8752F3"/>
<stop offset="0.5" stop-color="#5497D5"/>
<stop offset="0.6" stop-color="#43B4CA"/>
<stop offset="0.72" stop-color="#28E0B9"/>
<stop offset="0.97" stop-color="#19FB9B"/>
</linearGradient>
</defs>
</svg>
