<svg width="20" height="20" viewBox="0 0 20 20" fill="none" xmlns="http://www.w3.org/2000/svg">
<g clip-path="url(#clip0_7381_24334)">
<path d="M0.253418 10.0002C0.253418 15.3834 4.61716 19.7471 10.0002 19.7471C15.3834 19.7471 19.7473 15.3832 19.7473 10.0002C19.7473 4.61717 15.3834 0.253418 10.0002 0.253418C4.61716 0.253418 0.253418 4.61716 0.253418 10.0002Z" fill="#0C0C4F"/>
<path fill-rule="evenodd" clip-rule="evenodd" d="M0.000244141 10.0002C0.000244141 4.47733 4.47733 0.000244141 10.0002 0.000244141C15.5232 0.000244141 20.0005 4.47733 20.0005 10.0002C20.0005 15.5231 15.5232 20.0002 10.0002 20.0002C4.47733 20.0002 0.000244141 15.5232 0.000244141 10.0002ZM10.0002 0.50658C4.75697 0.50658 0.50658 4.75697 0.50658 10.0002C0.50658 15.2435 4.75697 19.4939 10.0002 19.4939C15.2435 19.4939 19.4942 15.2434 19.4942 10.0002C19.4942 4.75699 15.2435 0.50658 10.0002 0.50658Z" fill="#EC796B"/>
<path fill-rule="evenodd" clip-rule="evenodd" d="M5.58955 7.64435L5.8364 6.88171C5.88658 6.72659 6.009 6.60589 6.16468 6.5583L6.93106 6.32262C7.03714 6.29022 7.038 6.14056 6.93278 6.10644L6.16985 5.85958C6.01502 5.80941 5.89431 5.68698 5.84644 5.5313L5.61104 4.76493C5.57865 4.65913 5.42899 4.65798 5.39486 4.76349L5.14801 5.52614C5.09784 5.68096 4.97542 5.80167 4.81973 5.84955L4.05335 6.08494C3.94728 6.11762 3.94612 6.267 4.05163 6.30112L4.81457 6.54797C4.96939 6.59814 5.0901 6.72086 5.13797 6.87654L5.37337 7.64263C5.40576 7.7487 5.55542 7.74986 5.58955 7.64435Z" fill="#FAFAFA"/>
<path fill-rule="evenodd" clip-rule="evenodd" d="M17.7028 7.20047C17.3868 6.84718 16.8938 6.64826 16.4144 6.56669C15.9312 6.48835 15.4245 6.49561 14.9475 6.58036C13.9823 6.74363 13.1055 7.14328 12.3407 7.63631C11.9435 7.87828 11.6048 8.15825 11.254 8.4434C11.0849 8.5876 10.9308 8.74117 10.7702 8.89254L10.3316 9.32898C9.85495 9.82717 9.38518 10.281 8.93064 10.6571C8.47427 11.0315 8.04759 11.3158 7.6271 11.5144C7.20688 11.714 6.75724 11.8314 6.17117 11.8501C5.59026 11.8706 4.90296 11.7658 4.16778 11.5927C3.42866 11.4204 2.6525 11.1749 1.78516 10.9635C2.08779 11.8031 2.54352 12.5451 3.12863 13.2233C3.7206 13.8898 4.45978 14.4971 5.40938 14.8966C6.34525 15.305 7.52134 15.4516 8.62103 15.2304C9.72362 15.0182 10.6912 14.508 11.4733 13.9179C12.2574 13.3218 12.8918 12.6428 13.4266 11.9369C13.5742 11.7418 13.6523 11.6327 13.7592 11.4802L14.0545 11.0428C14.2597 10.7723 14.4465 10.4642 14.6496 10.1961C15.0478 9.6347 15.4405 9.07392 15.8967 8.55729C16.1263 8.29524 16.3685 8.0446 16.6543 7.80372C16.7968 7.68615 16.9509 7.57108 17.1215 7.46744C17.2947 7.35564 17.4776 7.26813 17.7028 7.20047Z" fill="#EC796B"/>
<path fill-rule="evenodd" clip-rule="evenodd" d="M17.7028 7.20043C17.3634 6.34396 16.7324 5.62302 15.8854 5.09102C15.0436 4.56487 13.8745 4.29636 12.7159 4.52524C12.1436 4.63594 11.589 4.84906 11.1024 5.13286C10.618 5.41553 10.1839 5.75582 9.80814 6.12087C9.62055 6.30401 9.45027 6.49505 9.2811 6.68718L8.84264 7.24619L8.16543 8.14606C7.30209 9.30385 6.37239 10.6607 4.8467 11.0627C3.34892 11.4574 2.69931 11.1079 1.78516 10.9635C1.95231 11.395 2.15935 11.8141 2.44004 12.1828C2.7155 12.5589 3.04087 12.9122 3.44538 13.2151C3.6498 13.3605 3.86563 13.5041 4.10532 13.6259C4.34395 13.7435 4.60127 13.847 4.87593 13.9248C5.42227 14.0746 6.03735 14.1271 6.63289 14.0465C7.22871 13.967 7.79821 13.7783 8.29601 13.5275C8.79749 13.279 9.23433 12.9765 9.62439 12.6572C10.3998 12.0133 11.0029 11.3018 11.5124 10.5827C11.7686 10.2231 12.0012 9.85672 12.2164 9.49026L12.4696 9.05397C12.547 8.92644 12.6253 8.79812 12.7047 8.67863C13.0256 8.19849 13.3394 7.81351 13.7206 7.52455C14.0964 7.22811 14.6198 7.0091 15.3192 6.95822C16.0157 6.90673 16.8197 7.00185 17.7028 7.20043Z" fill="#FAFAFA"/>
<path fill-rule="evenodd" clip-rule="evenodd" d="M13.9348 14.3165C13.9348 14.9456 14.4451 15.4558 15.0741 15.4558C15.7032 15.4558 16.2127 14.9456 16.2127 14.3165C16.2127 13.6875 15.7032 13.1772 15.0741 13.1772C14.4451 13.1772 13.9348 13.6875 13.9348 14.3165Z" fill="#EC796B"/>
</g>
<defs>
<clipPath id="clip0_7381_24334">
<rect width="20" height="20" fill="white"/>
</clipPath>
</defs>
</svg>
